<svg id="Layer_2" data-name="Layer 2" xmlns="http://www.w3.org/2000/svg" viewBox="0 0 2048 512"><defs><style>.cls-5{stroke:#dadff7;stroke-miterlimit:10;stroke-width:10px;fill:none}</style></defs><path d="M311.05 446.13l-3.05 11.7A14.16 14.16 0 0 1 293.83 472H101.17A14.16 14.16 0 0 1 87 457.83l-4.47-22.93a355.8 355.8 0 0 1-3-119.9q2.3-15.57 5.52-31l1.29-6.13A219.77 219.77 0 0 1 106 218.93a123.33 123.33 0 0 0 9.68-26.7A123.19 123.19 0 0 0 119 164a209.72 209.72 0 0 1 16.94-82.55A69.7 69.7 0 0 1 200 39.22c1.34 0 2.67 0 4 .12a69.71 69.71 0 0 1 60.06 42.12A209.72 209.72 0 0 1 281 164a122.86 122.86 0 0 0 13 54.92l.88 1.75a219.89 219.89 0 0 1 18.93 55.17l2.08 10.42c.07.33.14.67.2 1q.63 3.2 1.2 6.39a356.34 356.34 0 0 1-6.24 152.48z" stroke-miterlimit="10" stroke-width="10" stroke="#dadff7" fill="#576490"/><circle cx="200" cy="121" r="59" fill="#232c33"/><path d="M200 67a54 54 0 1 1-54 54 54 54 0 0 1 54-54m0-10a64 64 0 1 0 64 64 64.07 64.07 0 0 0-64-64z" fill="#dadff7"/><path d="M175.86 444.5h49.28c39.81 0 70.92-50.38 67-90l-5.38-37.82c-3.18-31.75-24.7-106.67-55-116.76h0a98.84 98.84 0 0 0-62.5 0h0c-30.27 10.09-51.79 85-55 116.76l-5.36 37.82c-3.96 39.62 27.15 90 66.96 90z" fill="#232c33" stroke-miterlimit="10" stroke-width="10" stroke="#dadff7"/><path class="cls-5" d="M212 121c0-10 6-18 13.5-18s13.5 8 13.5 18m-78 0c0-10 6-18 13.5-18s13.5 8 13.5 18m128.5 180.5c0 9.95-52.33 18-117 18s-117-8.05-117-18"/><path d="M317.5 292.5c0 9.95-52.33 18-117 18s-117-8.05-117-18" stroke="#232c33" fill="none" stroke-miterlimit="10" stroke-width="10"/><path class="cls-5" d="M314 282.5c0 9.95-50.76 18-113.5 18S87 292.45 87 282.5"/><text transform="translate(405 343.42)" font-size="237" font-family="Raleway-Bold,Raleway" font-weight="700" fill="#dadff7">M<tspan x="205" y="0" letter-spacing="-.07em">A</tspan><tspan x="347.68" y="0">T</tspan><tspan x="494.38" y="0" letter-spacing="-.02em">R</tspan><tspan x="646.53" y="0" letter-spacing="-.05em">Y</tspan><tspan x="791.58" y="0" letter-spacing="0">OSHK</tspan><tspan x="1451.14" y="0" letter-spacing="-.03em">A</tspan></text></svg>